<?xml version="1.0" encoding="UTF-8" standalone="no"?>
<!DOCTYPE svg PUBLIC "-//W3C//DTD SVG 1.1//EN" "http://www.w3.org/Graphics/SVG/1.1/DTD/svg11.dtd">
<svg version="1.1" xmlns="http://www.w3.org/2000/svg" xmlns:xlink="http://www.w3.org/1999/xlink" preserveAspectRatio="xMidYMid meet" viewBox="0 0 640 640" width="640" height="640"><defs><path d="M592.32 353.79C570.44 356.02 550.66 343.3 541.52 323.43C539.79 323.58 531.15 324.36 515.59 325.75C503.85 331.52 497.32 334.72 496.02 335.36C491.54 337.55 488.53 341.9 487.84 346.9C485.99 360.37 482.64 373.34 477.97 385.68C476.39 389.85 476.67 394.51 478.82 398.41C479.29 399.26 481.61 403.48 485.79 411.09C497.43 419.03 503.89 423.44 505.18 424.32C515.41 420.35 527.31 421.3 537.09 427.98C553.68 439.3 557.66 462.6 545.32 479.01C534.7 493.14 514.96 497.02 499.93 487.94C490.35 482.16 484.57 472.57 483.15 462.32C481.72 461.35 474.56 456.46 461.66 447.67C453.55 446.66 449.04 446.1 448.14 445.99C443.49 445.41 438.87 447.04 435.49 450.33C424.07 461.38 411.18 470.88 397.17 478.48C392.45 481.03 389.43 485.94 389.1 491.35C388.98 493.21 388.41 502.49 387.38 519.21C392.49 539.8 395.32 551.24 395.89 553.53C410.36 557.64 422.33 569.31 426.27 585.19C432.21 609.19 417.55 633.55 393.64 638.96C372.07 643.85 349.95 631.06 343.1 609.69C337.76 593.01 342.66 575.76 353.94 564.49C353.37 562.19 350.52 550.68 345.39 529.97C337.48 517.02 333.08 509.83 332.2 508.4C328.66 502.61 322.4 499.18 315.69 499.19C315.65 499.19 315.62 499.19 315.58 499.19C304.03 499.19 292.72 498.03 281.78 495.84C275.27 494.52 268.55 496.62 263.98 501.52C262.82 502.77 257.01 509 246.55 520.23C234.83 544.94 228.33 558.67 227.03 561.41C231.6 570.86 232 582.26 227.17 592.48C218.48 610.81 196.32 618.09 178.6 607.96C163.44 599.27 156.88 580.09 163.48 563.7C167.99 552.52 177.32 545.05 187.89 542.55C189.2 539.79 195.75 525.97 207.53 501.1C209.84 484.41 211.13 475.14 211.39 473.28C212.09 468.15 210.16 462.98 206.2 459.73C190.57 446.83 177.18 431.27 166.7 413.7C164.1 409.33 159.43 406.68 154.41 406.64C152.59 406.63 143.48 406.54 127.09 406.38C109.15 412.11 99.19 415.3 97.19 415.94C95.09 434.85 82.36 451.66 63.37 457.73C37.85 465.9 10.67 451.63 2.39 425.84C-5.9 400.06 8.09 371.87 33.41 363.35C51.14 357.39 69.76 362.34 82.36 374.53C84.48 373.85 95.05 370.46 114.1 364.37C128.01 354.29 135.73 348.69 137.28 347.57C140.72 345.08 142.56 340.92 142.22 336.65C141.83 331.91 141.64 327.12 141.64 322.29C141.64 296.01 147.32 271.07 157.46 248.64C158.94 245.35 158.9 241.56 157.34 238.31C156.88 237.36 154.59 232.6 150.47 224.03C139.29 215.45 133.08 210.68 131.84 209.72C121.4 213.12 109.58 211.5 100.18 204.28C84.22 192.03 81.53 168.54 94.73 152.86C106.11 139.36 126.04 136.6 140.55 146.51C149.8 152.82 155.06 162.71 155.9 173.02C157.28 174.08 164.16 179.37 176.56 188.88C189.05 191.14 195.99 192.4 197.37 192.65C212.52 178.34 230.18 166.75 249.58 158.63C249.91 156.61 251.54 146.55 254.47 128.43C250.77 109.71 248.71 99.32 248.3 97.24C230.05 92.46 215.23 78.23 211.24 59.26C205.62 32.47 223.72 6.37 251.7 0.98C279.66 -4.41 306.89 12.94 312.52 39.73C316.73 59.79 307.66 79.44 291.1 90.32C291.48 92.28 293.43 102.09 296.92 119.74C305.5 133.66 310.27 141.4 311.23 142.95C312.16 144.47 313.8 145.38 315.56 145.38C315.56 145.38 315.58 145.38 315.58 145.38C348.34 145.38 379.01 154.65 405.2 170.74C406.64 171.61 408.41 171.74 409.93 171.01C411.42 170.31 418.89 166.79 432.33 160.45C448.02 143.19 456.74 133.6 458.48 131.68C456.91 121.36 459.8 110.43 467.32 102.17C480.89 87.24 504.14 86.87 518.17 101.79C530.46 114.89 530.94 135.78 519.26 149.45C511.71 158.3 500.86 162.39 490.27 161.58C488.53 163.5 479.81 173.09 464.12 190.35C459.02 204.3 456.19 212.04 455.63 213.59C455.03 215.2 455.3 217 456.29 218.4C466.6 232.8 474.83 248.84 480.51 266.06C482.08 270.79 485.78 274.47 490.51 275.82C491.93 276.23 499.02 278.25 511.77 281.88C528.35 280.39 537.56 279.56 539.4 279.4C546.18 259.53 563.1 244.5 583.88 242.38C612.44 239.46 637.5 262.04 639.82 292.8C642.16 323.56 620.88 350.87 592.32 353.79Z" id="aEPdzd9xn"></path><path d="M315.58 191.29C244.45 191.29 186.78 249.94 186.78 322.29C186.78 394.63 244.45 453.28 315.58 453.28C386.72 453.28 444.39 394.63 444.39 322.29C444.39 249.94 386.72 191.29 315.58 191.29Z" id="awzVHtaLS"></path><path d="M335.21 192.8C328.81 191.81 322.26 191.29 315.58 191.29C244.45 191.29 186.78 249.94 186.78 322.29C186.78 394.64 244.45 453.28 315.58 453.28C322.26 453.28 328.81 452.77 335.21 451.77C273.39 442.16 226.04 387.85 226.04 322.29C226.04 256.73 273.39 202.42 335.21 192.8Z" id="bomEBWpk0"></path><path d="M98.87 9.53C78.61 9.53 62.19 26.23 62.19 46.84C62.19 67.44 78.61 84.14 98.87 84.14C119.12 84.14 135.54 67.44 135.54 46.84C135.54 26.23 119.12 9.53 98.87 9.53Z" id="a5p5YdVmqC"></path><path d="M88.84 513.92C75.46 513.92 64.61 524.95 64.61 538.56C64.61 552.16 75.46 563.2 88.84 563.2C102.22 563.2 113.07 552.16 113.07 538.56C113.07 524.95 102.22 513.92 88.84 513.92Z" id="b2ZBzkogib"></path><path d="M533.67 542.74C513.96 542.74 497.98 558.99 497.98 579.03C497.98 599.07 513.96 615.32 533.67 615.32C553.37 615.32 569.35 599.07 569.35 579.03C569.35 558.99 553.37 542.74 533.67 542.74Z" id="amzZjN3T1"></path><path d="M276.05 252.33C257.67 252.33 242.78 267.48 242.78 286.16C242.78 304.85 257.67 320 276.05 320C294.42 320 309.32 304.85 309.32 286.16C309.32 267.48 294.42 252.33 276.05 252.33Z" id="a1feqs3f3"></path><path d="M302.75 368.23C290.25 368.23 280.11 378.54 280.11 391.26C280.11 403.98 290.25 414.29 302.75 414.29C315.26 414.29 325.4 403.98 325.4 391.26C325.4 378.54 315.26 368.23 302.75 368.23Z" id="d9ZbLXkv9"></path><path d="M373.86 302.95C363.36 302.95 354.84 311.61 354.84 322.29C354.84 332.97 363.36 341.63 373.86 341.63C384.36 341.63 392.88 332.97 392.88 322.29C392.88 311.61 384.36 302.95 373.86 302.95Z" id="abbg5Lsc3"></path></defs><g><g><g><use xlink:href="#aEPdzd9xn" opacity="1" fill="#ffffff" fill-opacity="1"></use><g><use xlink:href="#aEPdzd9xn" opacity="1" fill-opacity="0" stroke="#000000" stroke-width="1" stroke-opacity="0"></use></g></g><g><use xlink:href="#awzVHtaLS" opacity="1" fill="#ffffff" fill-opacity="1"></use><g><use xlink:href="#awzVHtaLS" opacity="1" fill-opacity="0" stroke="#000000" stroke-width="1" stroke-opacity="0"></use></g></g><g><use xlink:href="#bomEBWpk0" opacity="1" fill="#ffffff" fill-opacity="1"></use><g><use xlink:href="#bomEBWpk0" opacity="1" fill-opacity="0" stroke="#000000" stroke-width="1" stroke-opacity="0"></use></g></g><g><use xlink:href="#a5p5YdVmqC" opacity="1" fill="#ffffff" fill-opacity="1"></use><g><use xlink:href="#a5p5YdVmqC" opacity="1" fill-opacity="0" stroke="#000000" stroke-width="1" stroke-opacity="0"></use></g></g><g><use xlink:href="#b2ZBzkogib" opacity="1" fill="#ffffff" fill-opacity="1"></use><g><use xlink:href="#b2ZBzkogib" opacity="1" fill-opacity="0" stroke="#000000" stroke-width="1" stroke-opacity="0"></use></g></g><g><use xlink:href="#amzZjN3T1" opacity="1" fill="#ffffff" fill-opacity="1"></use><g><use xlink:href="#amzZjN3T1" opacity="1" fill-opacity="0" stroke="#000000" stroke-width="1" stroke-opacity="0"></use></g></g><g><use xlink:href="#a1feqs3f3" opacity="1" fill="#ffffff" fill-opacity="1"></use><g><use xlink:href="#a1feqs3f3" opacity="1" fill-opacity="0" stroke="#000000" stroke-width="1" stroke-opacity="0"></use></g></g><g><use xlink:href="#d9ZbLXkv9" opacity="1" fill="#ffffff" fill-opacity="1"></use><g><use xlink:href="#d9ZbLXkv9" opacity="1" fill-opacity="0" stroke="#000000" stroke-width="1" stroke-opacity="0"></use></g></g><g><use xlink:href="#abbg5Lsc3" opacity="1" fill="#ffffff" fill-opacity="1"></use><g><use xlink:href="#abbg5Lsc3" opacity="1" fill-opacity="0" stroke="#000000" stroke-width="1" stroke-opacity="0"></use></g></g></g></g></svg>