<?xml version="1.0" encoding="UTF-8" standalone="no"?>
<!DOCTYPE svg PUBLIC "-//W3C//DTD SVG 1.1//EN" "http://www.w3.org/Graphics/SVG/1.1/DTD/svg11.dtd">
<svg version="1.1" xmlns="http://www.w3.org/2000/svg" xmlns:xlink="http://www.w3.org/1999/xlink" preserveAspectRatio="xMidYMid meet" viewBox="0 0 640 640" width="640" height="640"><defs><path d="M356.68 371.47C364.21 350.03 353.9 326.19 333.64 318.22C331.33 317.31 328.95 316.63 326.52 316.2C326.52 314.05 326.52 296.9 326.52 294.75C402.08 290.94 460.42 223.04 456.82 143.09C453.81 76.35 408.08 20.43 346.09 7.71C346.09 6.94 346.09 0.77 346.09 0C453.19 15.25 528.34 119.47 513.93 232.8C513.66 234.91 513.36 237.01 513.03 239.11C614.21 279.29 665.44 398.65 627.47 505.7C626.76 507.69 626.03 509.67 625.26 511.64C624.63 511.25 619.59 508.17 618.96 507.78C643.61 432.11 605.62 349.62 534.1 323.53C474.4 301.75 408.37 325.98 374.23 382.19C370.72 380.05 360.19 373.61 356.68 371.47ZM238.77 249.02C227.18 238.37 217.56 225.54 210.39 211.18C274.56 157.19 365.44 157.19 429.61 211.18C422.32 225.46 412.71 238.27 401.22 249.02C353.68 208.99 286.32 208.99 238.77 249.02Z" id="c76O8ntVdQ"></path><path d="M289.84 383.42C303.62 401.04 328.29 403.51 344.94 388.94C346.84 387.28 348.59 385.43 350.16 383.42C351.91 384.49 365.96 393.07 367.71 394.14C333.05 465.29 359.46 552.7 426.7 589.37C482.82 619.99 551.46 606.04 592.87 555.6C593.5 555.98 598.54 559.07 599.17 559.45C533.14 649.97 410.26 666.71 324.71 596.85C323.12 595.55 321.55 594.22 320 592.88C236.52 665.5 113.21 652.76 44.58 564.44C43.3 562.79 42.05 561.13 40.83 559.45C41.46 559.07 46.5 555.98 47.13 555.6C96.74 616.03 183.26 622.46 240.37 569.97C288.04 526.15 301.22 453.53 272.29 394.14C275.8 392 286.33 385.56 289.84 383.42ZM449.01 336.6C463.52 331.3 478.84 328.9 494.18 329.52C506.28 415.31 460.84 498.59 384.57 530.39C376.52 516.58 370.84 501.37 367.79 485.46C424.32 461.91 458 400.18 449.01 336.6Z" id="dtZ0HtLrO"></path><path d="M313.48 316.2C292.17 320.01 277.81 341.38 281.41 363.93C281.82 366.5 282.46 369.02 283.32 371.47C281.56 372.54 267.52 381.12 265.77 382.19C224.87 314.85 140.12 295.35 76.48 338.63C23.36 374.75 0.46 444.62 21.04 507.78C20.41 508.17 15.37 511.25 14.74 511.64C-26.34 405.87 21.4 284.9 121.36 241.44C123.22 240.63 125.08 239.85 126.97 239.1C109.27 126.3 181.34 19.67 287.95 0.95C289.93 0.6 291.92 0.28 293.91 0C293.91 0.77 293.91 6.94 293.91 7.71C219.64 22.95 171.12 99.01 185.53 177.59C197.56 243.18 250.4 291.57 313.48 294.75C313.48 299.04 313.48 311.91 313.48 316.2ZM272.21 485.46C269.29 501.41 263.6 516.64 255.43 530.39C179.16 498.59 133.72 415.31 145.82 329.52C161.15 329.05 176.44 331.45 190.98 336.6C181.99 400.18 215.68 461.91 272.21 485.46Z" id="adiLdQNoX"></path></defs><g><g><g><use xlink:href="#c76O8ntVdQ" opacity="1" fill="#ffffff" fill-opacity="1"></use><g><use xlink:href="#c76O8ntVdQ" opacity="1" fill-opacity="0" stroke="#000000" stroke-width="1" stroke-opacity="0"></use></g></g><g><use xlink:href="#dtZ0HtLrO" opacity="1" fill="#ffffff" fill-opacity="1"></use><g><use xlink:href="#dtZ0HtLrO" opacity="1" fill-opacity="0" stroke="#000000" stroke-width="1" stroke-opacity="0"></use></g></g><g><use xlink:href="#adiLdQNoX" opacity="1" fill="#ffffff" fill-opacity="1"></use><g><use xlink:href="#adiLdQNoX" opacity="1" fill-opacity="0" stroke="#000000" stroke-width="1" stroke-opacity="0"></use></g></g></g></g></svg>