<?xml version="1.0" encoding="UTF-8" standalone="no"?>
<!DOCTYPE svg PUBLIC "-//W3C//DTD SVG 1.1//EN" "http://www.w3.org/Graphics/SVG/1.1/DTD/svg11.dtd">
<svg version="1.1" xmlns="http://www.w3.org/2000/svg" xmlns:xlink="http://www.w3.org/1999/xlink" preserveAspectRatio="xMidYMid meet" viewBox="0 0 640 640" width="640" height="640"><defs><path d="M396.19 243.81C396.19 142.7 396.19 86.53 396.19 75.29C396.19 33.89 361.42 0 320 0C278.58 0 243.81 33.89 243.81 75.29C243.81 86.53 243.81 142.7 243.81 243.81C142.7 243.81 86.53 243.81 75.29 243.81C33.89 243.81 0 278.58 0 320C0 361.42 33.89 396.19 75.29 396.19C86.53 396.19 142.7 396.19 243.81 396.19C243.81 497.3 243.81 553.47 243.81 564.71C243.81 606.11 278.58 640 320 640C361.42 640 396.19 606.11 396.19 564.71C396.19 553.47 396.19 497.3 396.19 396.19C497.3 396.19 553.47 396.19 564.71 396.19C606.11 396.19 640 361.42 640 320C640 278.58 606.11 243.81 564.71 243.81C542.24 243.81 486.07 243.81 396.19 243.81Z" id="ba80J78PJ"></path></defs><g><g><g><use xlink:href="#ba80J78PJ" opacity="1" fill="#ffffff" fill-opacity="1"></use><g><use xlink:href="#ba80J78PJ" opacity="1" fill-opacity="0" stroke="#000000" stroke-width="1" stroke-opacity="0"></use></g></g></g></g></svg>