<?xml version="1.0" encoding="UTF-8" standalone="no"?>
<!DOCTYPE svg PUBLIC "-//W3C//DTD SVG 1.1//EN" "http://www.w3.org/Graphics/SVG/1.1/DTD/svg11.dtd">
<svg version="1.1" xmlns="http://www.w3.org/2000/svg" xmlns:xlink="http://www.w3.org/1999/xlink" preserveAspectRatio="xMidYMid meet" viewBox="0 0 640 640" width="640" height="640"><defs><path d="M182.1 42.13C177.74 45.07 176.59 51 179.54 55.36C182.48 59.72 188.41 60.86 192.77 57.92C230.4 32.49 274.4 19.06 320 19.06C445.49 19.06 547.58 121.15 547.58 246.64C547.58 248.53 547.58 263.67 547.58 265.57C542.52 257.47 536.51 249.88 529.59 242.96C519.52 232.89 515.38 218.04 518.8 204.22C519.28 202.25 523.16 186.57 523.64 184.61C524.9 179.5 521.79 174.33 516.68 173.07C511.57 171.81 506.4 174.93 505.14 180.03C504.66 182 500.78 197.68 500.3 199.64C495.29 219.91 501.35 241.67 516.11 256.44C536.41 276.73 547.58 303.71 547.58 332.42C547.58 339.17 547.58 393.24 547.58 400C547.58 428.76 524.19 452.16 495.42 452.16C495.41 452.16 495.39 452.16 495.37 452.16C476.82 452.14 459.53 442.15 450.24 426.08C447.6 421.52 441.78 419.96 437.22 422.6C432.66 425.23 431.1 431.06 433.74 435.61C444.82 454.8 464.26 467.63 485.9 470.58C485.9 474.31 485.9 492.98 485.9 526.58L468.28 526.58C468.28 518.38 468.28 513.82 468.28 512.91C468.28 494.86 453.59 480.18 435.55 480.18C426.49 480.18 418.28 483.88 412.35 489.85C406.41 483.88 398.21 480.18 389.15 480.18C380.09 480.18 371.88 483.88 365.95 489.85C360.01 483.88 351.81 480.18 342.75 480.18C333.69 480.18 325.48 483.88 319.55 489.85C313.61 483.88 305.41 480.18 296.35 480.18C287.29 480.18 279.08 483.88 273.15 489.85C267.21 483.88 259.01 480.18 249.95 480.18C240.89 480.18 232.68 483.88 226.75 489.85C220.81 483.88 212.61 480.18 203.55 480.18C185.5 480.18 170.82 494.86 170.82 512.91C170.82 513.82 170.82 518.38 170.82 526.58L154.12 526.58C154.12 492.98 154.12 474.31 154.12 470.58C175.75 467.63 195.19 454.8 206.27 435.61C208.91 431.06 207.35 425.23 202.79 422.6C198.23 419.96 192.41 421.52 189.77 426.08C180.49 442.15 163.19 452.14 144.64 452.16C144.62 452.16 144.61 452.16 144.59 452.16C115.83 452.16 92.43 428.76 92.43 400C92.43 393.24 92.43 339.17 92.43 332.42C92.43 303.71 103.6 276.73 123.9 256.44C138.66 241.67 144.72 219.91 139.71 199.64C139.23 197.68 135.35 181.99 134.87 180.03C133.61 174.92 128.44 171.8 123.33 173.07C118.22 174.33 115.11 179.5 116.37 184.61C116.85 186.57 120.73 202.25 121.21 204.22C124.63 218.04 120.5 232.89 110.42 242.96C103.5 249.88 97.49 257.47 92.43 265.57C92.43 263.67 92.43 248.53 92.43 246.64C92.43 185.85 116.1 128.7 159.09 85.71C162.81 81.99 162.81 75.96 159.09 72.24C155.36 68.52 149.33 68.52 145.61 72.24C99.02 118.82 73.36 180.76 73.36 246.64C73.36 261.97 73.36 384.66 73.36 400C73.36 436.04 100.27 465.91 135.05 470.58C135.05 477.14 135.05 529.56 135.05 536.11C135.05 541.37 139.32 545.64 144.58 545.64C146.33 545.64 155.07 545.64 170.81 545.64C170.81 553.84 170.81 558.4 170.81 559.31C170.81 561.96 171.13 564.52 171.73 566.99C171.73 570.56 171.73 599.11 171.73 602.67C171.73 623.26 188.47 640 209.05 640C225.1 640 353.5 640 369.55 640C374.81 640 379.08 635.73 379.08 630.47C379.08 625.21 374.81 620.94 369.55 620.94C353.5 620.94 225.11 620.94 209.06 620.94C198.99 620.94 190.79 612.75 190.79 602.67C190.79 601.35 190.79 590.77 190.79 589.45C194.71 591.12 199.02 592.04 203.54 592.04C212.6 592.04 220.81 588.34 226.74 582.37C232.68 588.34 240.88 592.04 249.94 592.04C259 592.04 267.21 588.34 273.14 582.37C279.08 588.34 287.28 592.04 296.34 592.04C305.4 592.04 313.61 588.34 319.54 582.37C325.48 588.34 333.68 592.04 342.74 592.04C351.8 592.04 360.01 588.34 365.94 582.37C371.88 588.34 380.08 592.04 389.14 592.04C398.2 592.04 406.41 588.34 412.34 582.37C418.28 588.34 426.48 592.04 435.54 592.04C440.42 592.04 445.05 590.96 449.21 589.03C449.21 590.4 449.21 601.31 449.21 602.67C449.21 612.75 441.02 620.94 430.95 620.94C427.98 620.94 404.28 620.94 401.32 620.94C396.06 620.94 391.79 625.21 391.79 630.47C391.79 635.73 396.06 640 401.32 640C404.28 640 427.98 640 430.95 640C451.53 640 468.27 623.25 468.27 602.67C468.27 599.78 468.27 585.33 468.27 559.31L468.27 545.64C484.56 545.64 493.61 545.64 495.42 545.64C500.68 545.64 504.95 541.37 504.95 536.11C504.95 529.56 504.95 477.14 504.95 470.58C539.73 465.91 566.64 436.04 566.64 400C566.64 384.66 566.64 261.97 566.64 246.64C566.64 110.64 456 0 320 0C270.58 0 222.89 14.57 182.1 42.13ZM189.87 512.91C189.87 512.91 189.87 512.91 189.87 512.91C189.87 505.37 196 499.24 203.54 499.24C211.08 499.24 217.21 505.37 217.21 512.91C217.21 513.82 217.21 518.38 217.21 526.58L189.87 526.58L189.87 512.91ZM203.54 572.98C197.73 572.98 192.76 569.33 190.79 564.2C190.79 562.96 190.79 556.77 190.79 545.64L217.21 545.64L217.21 559.31C213.12 568.42 208.57 572.98 203.54 572.98ZM249.94 499.24C257.48 499.24 263.61 505.37 263.61 512.91C263.61 513.82 263.61 518.38 263.61 526.58L236.27 526.58L236.27 512.91C240.36 503.8 244.92 499.24 249.94 499.24ZM249.94 572.98C242.4 572.98 236.27 566.85 236.27 559.31C236.27 558.4 236.27 553.84 236.27 545.64L263.61 545.64L263.61 559.31C259.52 568.42 254.97 572.98 249.94 572.98ZM296.34 499.24C303.88 499.24 310.01 505.37 310.01 512.91C310.01 513.82 310.01 518.38 310.01 526.58L282.67 526.58L282.67 512.91C286.76 503.8 291.32 499.24 296.34 499.24ZM296.34 572.98C288.8 572.98 282.67 566.85 282.67 559.31C282.67 558.4 282.67 553.84 282.67 545.64L310.01 545.64L310.01 559.31C305.93 568.42 301.37 572.98 296.34 572.98ZM342.74 499.24C350.28 499.24 356.41 505.37 356.41 512.91C356.41 513.82 356.41 518.38 356.41 526.58L329.07 526.58L329.07 512.91C333.16 503.8 337.72 499.24 342.74 499.24ZM342.74 572.98C335.2 572.98 329.07 566.85 329.07 559.31C329.07 558.4 329.07 553.84 329.07 545.64L356.41 545.64L356.41 559.31C352.32 568.42 347.77 572.98 342.74 572.98ZM389.14 499.24C396.68 499.24 402.81 505.37 402.81 512.91C402.81 513.82 402.81 518.38 402.81 526.58L375.47 526.58L375.47 512.91C379.56 503.8 384.12 499.24 389.14 499.24ZM389.14 572.98C381.6 572.98 375.47 566.85 375.47 559.31C375.47 558.4 375.47 553.84 375.47 545.64L402.81 545.64L402.81 559.31C398.72 568.42 394.17 572.98 389.14 572.98ZM435.54 499.24C443.08 499.24 449.21 505.37 449.21 512.91C449.21 513.82 449.21 518.38 449.21 526.58L421.87 526.58L421.87 512.91C425.96 503.8 430.52 499.24 435.54 499.24ZM435.54 572.98C428 572.98 421.87 566.85 421.87 559.31C421.87 558.4 421.87 553.84 421.87 545.64L449.21 545.64L449.21 559.31C445.13 568.42 440.57 572.98 435.54 572.98Z" id="c25h6nUgur"></path><path d="M351.52 339.58C347.58 325.2 334.91 315.54 320 315.54C305.09 315.54 292.43 325.2 288.48 339.58C286.73 345.96 272.72 397.05 270.97 403.44C268.49 412.48 270.33 421.95 276.02 429.4C281.71 436.86 290.35 441.13 299.72 441.13C307.55 441.13 314.68 438.1 320 433.15C325.33 438.1 332.46 441.13 340.28 441.13C349.66 441.13 358.3 436.86 363.98 429.4C369.67 421.95 371.51 412.48 369.03 403.44C365.53 390.67 353.27 345.96 351.52 339.58ZM340.28 422.08C334.35 422.08 329.53 417.25 329.53 411.32C329.53 410.04 329.53 399.8 329.53 398.52C329.53 393.26 325.27 388.99 320 388.99C314.74 388.99 310.47 393.26 310.47 398.52C310.47 399.8 310.47 410.04 310.47 411.32C310.47 417.25 305.65 422.08 299.72 422.08C296.34 422.08 293.22 420.53 291.17 417.84C289.12 415.15 288.46 411.74 289.35 408.48C291.11 402.09 305.11 351 306.87 344.62C308.89 337.23 314.98 334.6 320 334.6C325.03 334.6 331.12 337.23 333.14 344.62C334.89 351 348.9 402.09 350.65 408.48C351.55 411.74 350.88 415.15 348.83 417.84C346.78 420.53 343.66 422.08 340.28 422.08Z" id="hucs11XmO"></path><path d="M370.11 298.34C370.11 302.87 370.11 339.08 370.11 343.61C370.11 373.45 394.38 397.72 424.22 397.72C428.75 397.72 464.96 397.72 469.49 397.72C490.24 397.72 507.13 380.83 507.13 360.08C507.13 305.28 462.55 260.7 407.75 260.7C387 260.7 370.11 277.59 370.11 298.34ZM424.22 378.66C404.89 378.66 389.17 362.94 389.17 343.61C389.17 339.08 389.17 302.87 389.17 298.34C389.17 288.1 397.51 279.76 407.75 279.76C452.04 279.76 488.07 315.79 488.07 360.08C488.07 370.33 479.73 378.66 469.49 378.66C460.43 378.66 428.75 378.66 424.22 378.66Z" id="b4ldzoob9a"></path><path d="M131.7 360.08C131.7 380.83 148.59 397.72 169.34 397.72C173.87 397.72 210.08 397.72 214.61 397.72C244.45 397.72 268.72 373.45 268.72 343.61C268.72 339.08 268.72 302.87 268.72 298.34C268.72 277.59 251.83 260.7 231.08 260.7C176.28 260.7 131.7 305.28 131.7 360.08ZM214.61 378.66C210.08 378.66 173.87 378.66 169.34 378.66C159.1 378.66 150.76 370.32 150.76 360.08C150.76 315.79 186.79 279.76 231.08 279.76C241.33 279.76 249.66 288.1 249.66 298.34C249.66 301.36 249.66 316.45 249.66 343.61C239.18 366.98 227.49 378.66 214.61 378.66Z" id="f5Rkm6edsx"></path></defs><g><g><g><use xlink:href="#c25h6nUgur" opacity="1" fill="#ffffff" fill-opacity="1"></use><g><use xlink:href="#c25h6nUgur" opacity="1" fill-opacity="0" stroke="#000000" stroke-width="1" stroke-opacity="0"></use></g></g><g><use xlink:href="#hucs11XmO" opacity="1" fill="#ffffff" fill-opacity="1"></use><g><use xlink:href="#hucs11XmO" opacity="1" fill-opacity="0" stroke="#000000" stroke-width="1" stroke-opacity="0"></use></g></g><g><use xlink:href="#b4ldzoob9a" opacity="1" fill="#ffffff" fill-opacity="1"></use><g><use xlink:href="#b4ldzoob9a" opacity="1" fill-opacity="0" stroke="#000000" stroke-width="1" stroke-opacity="0"></use></g></g><g><use xlink:href="#f5Rkm6edsx" opacity="1" fill="#ffffff" fill-opacity="1"></use><g><use xlink:href="#f5Rkm6edsx" opacity="1" fill-opacity="0" stroke="#000000" stroke-width="1" stroke-opacity="0"></use></g></g></g></g></svg>