<?xml version="1.0" encoding="iso-8859-1"?>
<!-- Generator: Adobe Illustrator 19.0.0, SVG Export Plug-In . SVG Version: 6.00 Build 0)  -->
<svg version="1.1" id="Capa_1" xmlns="http://www.w3.org/2000/svg" xmlns:xlink="http://www.w3.org/1999/xlink" x="0px" y="0px"
	 viewBox="0 0 511.999 511.999" style="enable-background:new 0 0 511.999 511.999;" xml:space="preserve">
<g>
	<g>
		<path d="M256.001,0c-39.539,0-77.687,11.653-110.322,33.7c-3.488,2.357-4.406,7.096-2.049,10.585
			c2.357,3.488,7.095,4.405,10.585,2.049c30.104-20.339,65.302-31.088,101.787-31.088c100.39,0,182.063,81.673,182.063,182.063
			v15.144c-4.048-6.48-8.86-12.549-14.396-18.085c-8.057-8.057-11.365-19.933-8.631-30.996l3.876-15.688
			c1.009-4.087-1.485-8.219-5.572-9.229c-4.084-1.007-8.219,1.485-9.229,5.572l-3.876,15.688
			c-4.006,16.215,0.843,33.624,12.652,45.433c16.236,16.236,25.178,37.822,25.178,60.784V320c0,23.009-18.719,41.728-41.728,41.728
			c-0.014,0-0.027,0.002-0.041,0.002c-14.844-0.015-28.677-8.007-36.108-20.868c-2.107-3.646-6.77-4.894-10.414-2.786
			c-3.645,2.106-4.893,6.769-2.786,10.414c8.867,15.347,24.416,25.616,41.727,27.97v44.804h-14.097v-10.937
			c0-14.437-11.746-26.183-26.183-26.183c-7.247,0-13.814,2.961-18.56,7.735c-4.746-4.774-11.313-7.735-18.56-7.735
			c-7.247,0-13.814,2.961-18.56,7.735c-4.746-4.774-11.313-7.735-18.56-7.735c-7.247,0-13.814,2.961-18.56,7.735
			c-4.746-4.774-11.313-7.735-18.56-7.735s-13.814,2.961-18.56,7.735c-4.746-4.774-11.313-7.735-18.56-7.735
			c-7.247,0-13.814,2.961-18.56,7.735c-4.746-4.774-11.313-7.735-18.56-7.735c-14.437,0-26.183,11.746-26.183,26.183v10.937h-13.362
			V376.46c17.311-2.354,32.859-12.623,41.727-27.97c2.107-3.645,0.859-8.308-2.786-10.414c-3.647-2.108-8.309-0.858-10.414,2.786
			c-7.431,12.861-21.264,20.853-36.108,20.868c-0.014,0-0.027-0.002-0.041-0.002c-23.009,0-41.728-18.719-41.728-41.728v-54.068
			c0-22.961,8.941-44.548,25.178-60.784c11.81-11.81,16.658-29.218,12.651-45.434l-3.877-15.688
			c-1.01-4.087-5.144-6.584-9.229-5.571c-4.087,1.009-6.581,5.142-5.572,9.229l3.877,15.688c2.733,11.063-0.574,22.938-8.631,30.996
			c-5.536,5.537-10.348,11.605-14.397,18.085V197.31c0-48.631,18.938-94.353,53.326-128.74c2.977-2.977,2.977-7.804,0-10.78
			c-2.977-2.978-7.804-2.977-10.78,0c-37.275,37.267-57.799,86.816-57.799,139.52V320c0,28.831,21.528,52.729,49.351,56.467v52.421
			c0,4.21,3.413,7.623,7.623,7.623h20.985v10.937c0,2.116,0.259,4.171,0.735,6.143v28.548c0,16.465,13.395,29.86,29.86,29.86H295.64
			c4.21,0,7.623-3.413,7.623-7.623c0-4.21-3.413-7.623-7.623-7.623H167.246c-8.058,0-14.614-6.556-14.614-14.614V471.56
			c3.137,1.333,6.584,2.07,10.202,2.07c7.247,0,13.814-2.961,18.56-7.735c4.746,4.774,11.313,7.735,18.56,7.735
			c7.247,0,13.814-2.961,18.56-7.735c4.746,4.774,11.313,7.735,18.56,7.735c7.247,0,13.814-2.961,18.56-7.735
			c4.746,4.774,11.313,7.735,18.56,7.735c7.247,0,13.814-2.961,18.56-7.735c4.746,4.774,11.313,7.735,18.56,7.735
			s13.814-2.961,18.56-7.735c4.746,4.774,11.313,7.735,18.56,7.735c3.903,0,7.606-0.865,10.937-2.403v10.911
			c0,8.058-6.556,14.614-14.614,14.614h-23.703c-4.21,0-7.623,3.413-7.623,7.623c0,4.21,3.413,7.623,7.623,7.623h23.703
			c16.465,0,29.86-13.395,29.86-29.86v-34.692V436.51h21.72c4.21,0,7.623-3.413,7.623-7.623v-52.421
			c27.824-3.737,49.351-27.635,49.351-56.467V197.31C453.311,88.512,364.798,0,256.001,0z M151.895,421.264v-10.937h0.001
			c0-6.03,4.906-10.937,10.937-10.937s10.937,4.906,10.937,10.937v10.937H151.895z M173.77,447.446
			c0,6.031-4.906,10.938-10.937,10.938c-4.651,0-8.623-2.924-10.202-7.028V436.51h21.138V447.446z M189.016,410.327
			c0.001-6.03,4.907-10.937,10.938-10.937s10.937,4.906,10.937,10.937v10.937h-21.874V410.327z M210.891,447.447
			c-0.001,6.03-4.907,10.937-10.938,10.937s-10.937-4.906-10.937-10.937v-10.937h21.874V447.447z M226.136,410.327
			c0-6.03,4.907-10.937,10.938-10.937s10.937,4.906,10.937,10.937v10.937h-21.874V410.327z M248.012,447.447
			c-0.001,6.03-4.907,10.937-10.938,10.937s-10.937-4.906-10.937-10.937v-10.937h21.874V447.447z M263.256,410.327
			c0.001-6.03,4.907-10.937,10.938-10.937s10.937,4.906,10.937,10.937v10.937h-21.874V410.327z M285.131,447.447
			c-0.001,6.03-4.907,10.937-10.938,10.937s-10.937-4.906-10.937-10.937v-10.937h21.874V447.447z M300.376,410.327
			c0-6.03,4.907-10.937,10.938-10.937c6.03,0,10.937,4.906,10.937,10.937v10.937h-21.874V410.327z M322.251,447.447
			c-0.001,6.03-4.907,10.937-10.938,10.937s-10.937-4.906-10.937-10.937v-10.937h21.874V447.447z M337.496,410.327
			c0.001-6.03,4.907-10.937,10.938-10.937s10.937,4.906,10.937,10.937v10.937h-21.874V410.327z M359.371,447.447
			c-0.001,6.03-4.907,10.937-10.938,10.937s-10.937-4.906-10.937-10.937v-10.937h21.874V447.447z"/>
	</g>
</g>
<g>
	<g>
		<path d="M295.224,322.752l-14.009-51.091c-3.154-11.503-13.287-19.231-25.214-19.231c-11.928,0-22.06,7.729-25.214,19.231
			l-14.009,51.091c-1.984,7.235-0.512,14.804,4.037,20.768c4.549,5.964,11.461,9.386,18.962,9.386c6.26,0,11.965-2.425,16.224-6.385
			c4.259,3.96,9.964,6.385,16.224,6.385c7.501,0,14.413-3.421,18.962-9.386C295.736,337.556,297.207,329.985,295.224,322.752z
			 M279.065,334.274c-1.641,2.152-4.134,3.386-6.839,3.386c-4.743,0-8.601-3.858-8.601-8.601v-10.243
			c0-4.21-3.413-7.623-7.623-7.623c-4.21,0-7.623,3.413-7.623,7.623v10.243c0,4.743-3.858,8.601-8.601,8.601
			c-2.706,0-5.199-1.234-6.839-3.386c-1.641-2.151-2.172-4.882-1.456-7.491l14.009-51.091c1.621-5.91,6.492-8.016,10.511-8.016
			c4.019,0,8.89,2.106,10.511,8.016l14.009,51.091C281.237,329.392,280.707,332.122,279.065,334.274z"/>
	</g>
</g>
<g>
	<g>
		<path d="M327.141,208.56c-16.606,0-30.115,13.51-30.115,30.115v36.211c0,23.871,19.42,43.29,43.291,43.29h36.21
			c16.605,0,30.115-13.51,30.115-30.115C406.642,244.224,370.978,208.56,327.141,208.56z M376.527,302.93h-36.211
			c-15.464,0-28.044-12.581-28.044-28.045v-36.211c0-8.198,6.671-14.869,14.869-14.869c35.43,0,64.255,28.825,64.255,64.256
			C391.396,296.26,384.725,302.93,376.527,302.93z"/>
	</g>
</g>
<g>
	<g>
		<path d="M184.862,208.559c-43.837,0-79.501,35.664-79.501,79.502c-0.001,16.605,13.508,30.115,30.114,30.115h36.211
			c23.871,0,43.291-19.42,43.291-43.29v-36.212C214.977,222.07,201.467,208.559,184.862,208.559z M199.73,274.885
			c0,15.464-12.58,28.044-28.045,28.044h-36.211c-8.198,0-14.869-6.671-14.869-14.869c0.001-35.43,28.826-64.255,64.256-64.255
			c8.199,0,14.869,6.671,14.869,14.869V274.885z"/>
	</g>
</g>
<g>
</g>
<g>
</g>
<g>
</g>
<g>
</g>
<g>
</g>
<g>
</g>
<g>
</g>
<g>
</g>
<g>
</g>
<g>
</g>
<g>
</g>
<g>
</g>
<g>
</g>
<g>
</g>
<g>
</g>
</svg>
